<svg width="422.606" height="161.477" viewBox="0 0 111.815 42.724" xmlns="http://www.w3.org/2000/svg"><path d="M7.234 4a1.492 1.492 0 00-1.055.437L4.437 6.179A1.492 1.492 0 004 7.234v12.03a1.492 1.492 0 00.437 1.054l1.742 1.742a1.492 1.492 0 001.055.436H26.89a1.492 1.492 0 011.055.438l1.251 1.25a1.492 1.492 0 01.437 1.057v10.74a1.492 1.492 0 00.437 1.055l1.251 1.251a1.492 1.492 0 001.055.437h67.677a1.939 1.939 0 001.122-.357l6.135-4.353a1.196 1.196 0 00.505-.975v-7.313a1.196 1.196 0 00-.505-.975l-6.135-4.353a1.939 1.939 0 00-1.122-.357h-7.364a1.492 1.492 0 01-1.055-.437l-.76-.762a1.492 1.492 0 01-.437-1.054V6.253A1.492 1.492 0 0090 5.198l-.761-.761A1.492 1.492 0 0088.184 4z" fill="#151515"/><g font-weight="700" text-anchor="end"><path d="M8.154 6.387L6.138 8.403v9.67l2.016 2.017h6.5l2.016-2.016V8.403l-2.016-2.016zm10.865 0V20.09h2.77V16h5.179l2.202-2.202V8.403l-2.016-2.016zm12.216 0V20.09h8.908v-2.77h-6.138v-2.76h5.462v-2.77h-5.462V9.157h6.138v-2.77zm11.257 0V20.09h2.77v-5.04h3.945l.978.978v4.062h2.77v-5.04l-1.194-1.303 1.195-1.096V8.403l-2.017-2.016zm14.731 0l-2.016 2.016V20.09h2.76v-4.033h4.836v4.033h2.76V8.403l-2.017-2.016zm10.2 0v2.77h3.396V20.09h2.76V9.157h3.397v-2.77zm11.413 0V20.09h8.907v-2.77h-6.137v-2.76h5.462v-2.77h-5.462V9.157h6.137v-2.77zm-69.33 2.77h3.797l.597.597v6.97l-.597.596H9.505l-.597-.597v-6.97zm12.284 0h4.023l.597.597v2.692l-.793.782H21.79zm23.472 0h4.326l.597.597v1.918l-.597.607h-4.326zm13.302 0h3.642l.597.597v3.543h-4.836V9.754z" fill="#b3b3b3"/><path d="M32.318 22.634v13.703h2.77v-5.53h5.57v-2.77h-5.57v-2.634h5.942v-2.77zm10.571 0v2.77h2.682v8.163H42.89v2.77h8.115v-2.77h-2.672v-8.164h2.672v-2.77zm10.464 0v13.703h2.77v-5.04h3.945l.979.978v4.062h2.77v-5.04l-1.194-1.303 1.194-1.096V24.65L61.8 22.634zm14.79 0l-2.016 2.016v4.199l2.016 2.017h5.051l.597.597v1.507l-.597.597h-3.759l-.597-.597v-1.116h-2.77v2.467l2.017 2.016h6.46l2.016-2.016v-4.21l-2.016-2.016h-5.051l-.607-.597v-1.497l.607-.598h3.514l.597.598v1.115h2.77V24.65l-2.016-2.016zm10.278 0v2.77h3.397v10.933h2.76V25.403h3.396v-2.77zm12.042 0v4.14l4.175 2.734-4.175 2.677v4.152l6.944-4.833v-3.991zm8.27 0v4.14l4.175 2.734-4.176 2.677v4.152l6.945-4.833v-3.991zm-42.61 2.77h4.327l.597.597v1.918l-.597.607h-4.327zm35.793.182l.087.059-.034-.01a.165.165 0 00-.053.025zm8.27 0l.002.002h-.002zm-8.27.32a.622.622 0 00.017.026l-.017-.011zM67.643 32.98h.001v.002l-.001-.002zm24.288.13l-.015.022v-.013zm-.015.323l.016.01-.016.01z" fill="#fc0"/></g></svg>
