<svg version="1.0" xmlns="http://www.w3.org/2000/svg" width="2256" height="2256" viewBox="0 0 1692 1692"><path d="M100.5 586c-5.5 2.7-34.9 32.4-37 37.2-1.3 3.3-1.5 15.6-1.5 100.5v96.8l2.9 5c3.9 6.8 30.6 32.9 36.2 35.5 4.3 1.9 7.1 2 156.2 2 112.5 0 153 .3 156.5 1.2 4.1 1 6.5 2.9 18 14.2 7.4 7.2 14.1 14.4 15 16.1 1.5 2.7 1.7 11.6 2.2 91l.5 88 2.7 4.5c3.4 5.9 24.7 26.6 29.2 28.5 3.1 1.3 68.5 1.5 521.8 1.5h518.3l4.6-2.3c7.4-3.5 99.7-69.6 102.2-73.1l2.2-3.1.3-61c.2-42.3-.1-61.8-.8-63.6-.6-1.5-2.6-4-4.3-5.7-6.8-6.5-97.2-69.7-102.2-71.4-4.5-1.6-10.6-1.7-64.4-1.8-43.8 0-60.4-.3-63.5-1.2-4.5-1.4-19.9-15.3-23.9-21.7l-2.2-3.6-.5-94-.5-94-2.7-4.5c-3.4-5.9-17.6-19.6-22.2-21.5-3.1-1.3-75.4-1.5-621.3-1.5-615.9 0-617.8 0-621.8 2zm137.2 49.2l15.3 15.3v145.8l-14.7 14.9-14.7 14.8H123.5l-14.7-14.7L94 796.5v-146l15.2-15.2 15.3-15.3h98l15.2 15.2zm189 0l15.3 15.3v81l-16.7 16.7-16.8 16.8H330v61h-41V620h122.5l15.2 15.2zm181.3 5.3V661h-93l.2 20.2.3 20.3 41.3.3 41.2.2v41h-83v42h93v41H474V620h134v20.5zm178.7-5.3l15.3 15.3v63.3l-9 8.3c-4.9 4.5-9 8.5-9 8.8 0 .3 4.1 5 9 10.4l9 9.7v75h-42v-60.9l-7.7-7.6-7.7-7.5-29.6.2-29.5.3-.3 37.7-.2 37.8h-41V620h127.5l15.2 15.2zm190.6-.4l14.7 14.7V826h-41v-60h-74v60h-41V650.5l15.2-15.2 15.3-15.3h96l14.8 14.8zm187.7 5.7V661l-25.7.2-25.8.3-.3 82.2-.2 82.3h-41V661h-51v-41h144v20.5zm163 0V661h-93l.2 20.2.3 20.3 41 .3 41 .2-.3 20.5-.3 20.5H1235v42h93v41h-134V620h134v20.5zM621 886v21l-44.7.2-44.8.3v39l42.3.3 42.2.2-.2 20.8-.3 20.7-42 .5-42 .5-.3 41.2-.2 41.3h-41V865h131v21zm151 0v21h-40v124h40v41H650v-41h40V907h-40v-42h122v21zm178.7-5.8l15.3 15.2v32.1l.1 32-9.1 8.5-9.1 8.5 9.1 9.9 9 10v75.6h-42v-61.5l-7.2-7.2-7.2-7.3H850v76h-42V865h127.4l15.3 15.2zm190 0l15.3 15.2V933h-42v-17.6l-4.3-4.2-4.3-4.2h-53.8l-4.3 4.2-4.3 4.2v24l4.2 4.3 4.2 4.3h77.1l15.2 15.2 15.3 15.3v63l-15.2 15.2-15.3 15.3h-98l-15.2-15.2-15.3-15.3V1005h42v16.4l4.7 4.8 4.7 4.8h56l4.8-4.7 4.8-4.7v-23l-4.2-4.3-4.2-4.3h-76.1l-15.7-15.7-15.8-15.8v-62.1l15.8-15.7 15.7-15.7h92.9l15.3 15.2zM1331 886v21h-51v165h-42V907.5l-25.5-.3-25.5-.2v-20.4c0-11.1.3-20.6.7-20.9.3-.4 32.7-.7 72-.7h71.3v21zm90.7 16.4l51.8 36.4.2 30.3.2 30.4-52.2 36.2-52.2 36.3-.3-30.3c-.1-16.6 0-30.7.2-31.2.2-.6 14.4-10.1 31.5-21 17.1-11 31.1-20.2 31-20.5 0-.3-14.2-9.7-31.5-21l-31.4-20.4v-30.8c0-16.9.2-30.8.5-30.8s23.8 16.4 52.2 36.4zm125.1 0l51.7 36.3.2 30.4.2 30.4-51.1 35.5c-28.1 19.5-51.7 35.9-52.4 36.3-1.2.7-1.4-4-1.2-30.4l.3-31.3 31-19.8c17.1-10.9 31.1-20.2 31.2-20.6.1-.4-14-9.9-31.3-21.2l-31.4-20.5v-30.7c0-17 .2-30.8.5-30.8s23.8 16.4 52.3 36.4z"/><path d="M139.6 666l-4.6 4.9V775.6l4.8 4.7 4.8 4.7h57.8l4.3-4.2 4.3-4.2v-107l-4.2-4.3-4.2-4.3h-58.3l-4.7 5zM330.7 661.7c-.4.3-.7 14.3-.7 31V723h58.6l6.2-6.3 6.2-6.3v-40l-4.8-4.7-4.8-4.7h-30c-16.5 0-30.4.3-30.7.7zM685.7 661.7c-.4.3-.7 11.1-.7 24V709h65.6l4.7-4.8 4.7-4.8v-29l-4.8-4.7-4.8-4.7h-32c-17.6 0-32.4.3-32.7.7zM881.7 665.8l-4.7 4.8V724h74v-53.6l-4.8-4.7-4.8-4.7h-55l-4.7 4.8zM850 931v24h64.6l4.7-4.8 4.7-4.8v-30l-4.3-4.2-4.3-4.2H850v24z"/></svg>
