<?xml version="1.0" standalone="no"?>
<!DOCTYPE svg PUBLIC "-//W3C//DTD SVG 20010904//EN"
 "http://www.w3.org/TR/2001/REC-SVG-20010904/DTD/svg10.dtd">
<svg version="1.0" xmlns="http://www.w3.org/2000/svg"
 width="1010.000000pt" height="1010.000000pt" viewBox="0 0 1010.000000 1010.000000"
 preserveAspectRatio="xMidYMid meet">
<metadata>
Created by potrace 1.14, written by Peter Selinger 2001-2017
</metadata>
<g transform="translate(0.000000,1010.000000) scale(0.100000,-0.100000)"
fill="#000000" stroke="none">
<path d="M339 10081 c-76 -24 -141 -73 -183 -135 -71 -104 -66 39 -66 -1987 0
-1769 1 -1829 19 -1888 33 -105 68 -142 246 -259 140 -92 673 -439 975 -635
102 -66 189 -123 194 -128 10 -8 -7 -19 -739 -484 -308 -196 -569 -369 -593
-393 -24 -24 -56 -69 -70 -100 l-27 -57 -3 -1850 c-2 -2054 -7 -1906 64 -2012
90 -132 282 -189 427 -125 38 17 981 666 2762 1900 171 119 409 284 530 367
121 84 306 212 410 284 l190 131 5 -1212 5 -1213 23 -57 c33 -81 106 -158 184
-194 54 -25 75 -29 148 -29 77 0 92 3 150 33 36 17 247 159 470 313 223 155
592 411 820 569 741 512 1171 810 1385 958 116 80 296 205 400 277 339 235
1092 756 1445 999 353 244 405 284 445 347 58 90 56 19 53 1555 l-3 1409 -32
65 c-18 36 -49 81 -70 102 -21 20 -243 179 -493 354 -602 420 -1778 1241
-2740 1914 -223 156 -506 354 -630 440 -124 86 -396 277 -605 423 -209 147
-409 282 -445 299 -58 30 -74 33 -150 33 -73 0 -94 -4 -148 -29 -78 -36 -151
-113 -184 -194 l-23 -57 -3 -1222 c-1 -673 -6 -1223 -10 -1223 -4 0 -182 123
-397 273 -1411 987 -1673 1170 -2849 1991 -329 230 -619 428 -645 439 -65 29
-170 32 -242 8z m891 -1571 c107 -75 384 -269 615 -430 231 -161 560 -391 730
-510 171 -119 477 -333 680 -475 204 -142 555 -387 780 -545 226 -157 467
-326 538 -375 l127 -89 0 -1051 0 -1051 -982 -680 c-540 -373 -1369 -947
-1842 -1275 l-861 -596 -3 1091 -2 1091 21 15 c28 20 1327 849 1806 1153 210
133 382 247 382 252 0 6 -109 80 -242 166 -282 182 -749 486 -1587 1032 l-375
245 -3 1091 c-2 874 0 1091 10 1085 7 -4 101 -69 208 -144z m4765 -260 c562
-393 839 -586 1405 -982 1243 -868 1505 -1051 1593 -1112 l97 -67 0 -1054 0
-1054 -112 -77 c-62 -43 -252 -175 -423 -293 -170 -118 -409 -283 -530 -366
-121 -84 -757 -524 -1414 -979 -656 -454 -1197 -826 -1202 -826 -5 0 -9 472
-9 1089 l0 1089 503 320 c276 176 729 465 1007 642 278 177 551 352 608 388
57 36 99 68 95 72 -4 4 -105 70 -223 147 -314 205 -1350 878 -1867 1215 l-123
80 0 1082 c0 596 3 1085 6 1089 4 3 21 -4 38 -17 17 -13 265 -187 551 -386z"/>
</g>
</svg>
