<svg width="281.236" height="31.369" viewBox="0 0 74.41 8.3" xmlns="http://www.w3.org/2000/svg"><path d="M1.43 0a.662.662 0 00-.467.192l-.77.764A.652.652 0 000 1.42v5.278c0 .174.07.34.193.463l.77.764a.662.662 0 00.467.192l39.304.086h29.918a.862.862 0 00.496-.157l2.712-1.91a.524.524 0 00.223-.428V2.498c0-.17-.083-.329-.223-.427L71.148.16a.862.862 0 00-.496-.157z" fill="#1a1a1a"/><path d="M1.825.995l-.891.891v4.275l.891.892h2.873l.892-.892V1.886L4.698.995zm4.803 0v6.058h1.225v-1.81h2.289l.973-.973V1.886l-.89-.891zm5.4 0v6.058h3.938V5.828h-2.713v-1.22h2.415V3.383h-2.415V2.22h2.713V.995zm4.977 0v6.058h1.224V4.824h1.744l.433.433v1.796h1.224V4.824l-.528-.575.528-.485V1.886L20.74.995zm6.512 0l-.892.891v5.167h1.22V5.27h2.138v1.783h1.22V1.886l-.89-.891zm4.509 0v1.224h1.501v4.834h1.22V2.219h1.502V.995zm5.045 0v6.058h3.938V5.828h-2.713v-1.22h2.414V3.383h-2.414V2.22h2.713V.995zM2.422 2.219h1.68l.263.264v3.081l-.264.264H2.422l-.264-.264v-3.08zm5.43 0h1.78l.263.264v1.19l-.35.346H7.853zm10.377 0h1.913l.264.264v.848l-.264.269h-1.913zm5.88 0h1.61l.264.264V4.05h-2.137V2.483z" fill="#b3b3b3"/><path d="M40.596.995v6.058h1.224V4.608h2.463V3.383H41.82V2.22h2.627V.995zm4.673 0v1.224h1.186v3.609h-1.186v1.225h3.587V5.828h-1.181V2.219h1.181V.995zm4.626 0v6.058h1.224V4.824h1.744l.433.433v1.796h1.225V4.824l-.528-.575.528-.485V1.886l-.892-.891zm6.538 0l-.891.891v1.856l.891.892h2.233l.264.264v.666l-.264.264h-1.662l-.264-.264v-.493h-1.224v1.09l.891.892h2.856l.891-.892v-1.86l-.891-.892H57.03l-.268-.264v-.662l.268-.264h1.554l.264.264v.493h1.224v-1.09l-.891-.891zm4.544 0v1.224h1.501v4.834h1.22V2.219H65.2V.995zm5.323 0v1.83l1.846 1.209L66.3 5.217v1.836l3.07-2.137V3.152zm3.656 0v1.83L71.8 4.034l-1.845 1.183v1.836l3.07-2.137V3.152zM51.119 2.219h1.913l.264.264v.848l-.264.269h-1.913zm15.823.081l.039.026-.015-.004a.073.073 0 00-.024.01zm3.656 0h.001l-.001.001zm-3.656.141a.275.275 0 00.008.012l-.008-.005zm-10.73 3.127v.001zm10.737.058l-.007.01V5.63zm-.007.143a.072.072 0 00.007.004l-.007.005z" fill="#fc0"/></svg>
